<svg
  width="54"
  height="54"
  viewBox="0 0 64 64"
  fill="none"
  xmlns="http://www.w3.org/2000/svg"
>
  <path
    d="M45.3333 5.33337H18.6667C15.1305 5.33337 11.7391 6.73813 9.23859 9.23862C6.7381 11.7391 5.33334 15.1305 5.33334 18.6667V45.3334C5.33334 48.8696 6.7381 52.261 9.23859 54.7615C11.7391 57.2619 15.1305 58.6667 18.6667 58.6667H45.3333C48.8696 58.6667 52.2609 57.2619 54.7614 54.7615C57.2619 52.261 58.6667 48.8696 58.6667 45.3334V18.6667C58.6667 15.1305 57.2619 11.7391 54.7614 9.23862C52.2609 6.73813 48.8696 5.33337 45.3333 5.33337V5.33337ZM53.3333 45.3334C53.3333 47.4551 52.4905 49.4899 50.9902 50.9902C49.4899 52.4905 47.4551 53.3334 45.3333 53.3334H18.6667C16.5449 53.3334 14.5101 52.4905 13.0098 50.9902C11.5095 49.4899 10.6667 47.4551 10.6667 45.3334V18.6667C10.6667 16.545 11.5095 14.5101 13.0098 13.0099C14.5101 11.5096 16.5449 10.6667 18.6667 10.6667H45.3333C47.4551 10.6667 49.4899 11.5096 50.9902 13.0099C52.4905 14.5101 53.3333 16.545 53.3333 18.6667V45.3334ZM32 29.3334C31.4726 29.3334 30.957 29.4898 30.5185 29.7828C30.08 30.0758 29.7382 30.4923 29.5363 30.9795C29.3345 31.4668 29.2817 32.003 29.3846 32.5203C29.4875 33.0376 29.7415 33.5127 30.1144 33.8857C30.4873 34.2586 30.9625 34.5126 31.4798 34.6155C31.9971 34.7184 32.5332 34.6656 33.0205 34.4637C33.5078 34.2619 33.9242 33.9201 34.2173 33.4816C34.5103 33.043 34.6667 32.5275 34.6667 32C34.6667 31.2928 34.3857 30.6145 33.8856 30.1144C33.3855 29.6143 32.7073 29.3334 32 29.3334Z"
    fill="#F14C36"
  />
</svg>
