<svg width="54" height="54" viewBox="0 0 54 44" fill="none" xmlns="http://www.w3.org/2000/svg">
<path d="M28.1466 0.933337C27.7136 0.745983 27.2386 0.676889 26.7701 0.733108C26.3016 0.789326 25.8564 0.968843 25.48 1.25334L12.7333 11.3333H2.99998C2.29274 11.3333 1.61446 11.6143 1.11436 12.1144C0.614264 12.6145 0.333313 13.2928 0.333313 14V30C0.333313 30.7073 0.614264 31.3855 1.11436 31.8856C1.61446 32.3857 2.29274 32.6667 2.99998 32.6667H12.7333L25.3466 42.7467C25.8158 43.1231 26.3985 43.3298 27 43.3333C27.3983 43.3399 27.7921 43.2483 28.1466 43.0667C28.6004 42.8505 28.9839 42.5106 29.2528 42.0859C29.5218 41.6613 29.6652 41.1693 29.6666 40.6667V3.33334C29.6652 2.83071 29.5218 2.33871 29.2528 1.91408C28.9839 1.48945 28.6004 1.14947 28.1466 0.933337ZM24.3333 35.12L15.32 27.92C14.8508 27.5436 14.2682 27.3368 13.6666 27.3333H5.66665V16.6667H13.6666C14.2682 16.6632 14.8508 16.4564 15.32 16.08L24.3333 8.88V35.12ZM35.3733 0.906671C35.0231 0.857644 34.6667 0.878073 34.3244 0.966791C33.9821 1.05551 33.6606 1.21078 33.3783 1.42373C33.0961 1.63669 32.8585 1.90316 32.6792 2.20793C32.4999 2.51271 32.3823 2.84981 32.3333 3.2C32.2843 3.5502 32.3047 3.90662 32.3934 4.24891C32.4822 4.59121 32.6374 4.91268 32.8504 5.19497C33.2805 5.76508 33.9194 6.14099 34.6266 6.24C38.4032 6.82199 41.8468 8.73634 44.3345 11.6368C46.8222 14.5372 48.1897 18.2322 48.1897 22.0533C48.1897 25.8745 46.8222 29.5695 44.3345 32.4699C41.8468 35.3703 38.4032 37.2847 34.6266 37.8667C33.9194 37.9162 33.2608 38.2446 32.7957 38.7797C32.3306 39.3148 32.0971 40.0128 32.1466 40.72C32.1962 41.4272 32.5246 42.0859 33.0597 42.5509C33.5948 43.016 34.2927 43.2495 35 43.2H35.3733C40.4209 42.4364 45.0273 39.8881 48.3562 36.0178C51.685 32.1474 53.5157 27.2117 53.5157 22.1067C53.5157 17.0017 51.685 12.0659 48.3562 8.19558C45.0273 4.32524 40.4209 1.77693 35.3733 1.01334V0.906671ZM34.1466 26.9867C33.4394 27.0998 32.8061 27.4893 32.386 28.0694C31.9659 28.6495 31.7935 29.3728 31.9066 30.08C32.0198 30.7872 32.4093 31.4206 32.9894 31.8407C33.5695 32.2607 34.2927 32.4332 35 32.32C35.2894 32.3168 35.5767 32.2719 35.8533 32.1867C37.9307 31.45 39.7289 30.088 41.0006 28.2877C42.2723 26.4875 42.9551 24.3375 42.9551 22.1333C42.9551 19.9292 42.2723 17.7792 41.0006 15.979C39.7289 14.1787 37.9307 12.8166 35.8533 12.08C35.1814 11.8537 34.4472 11.9035 33.812 12.2186C33.1769 12.5337 32.693 13.0881 32.4666 13.76C32.2403 14.4319 32.2902 15.1662 32.6052 15.8013C32.9203 16.4364 33.4748 16.9204 34.1466 17.1467C35.1586 17.5305 36.0297 18.2131 36.6445 19.1038C37.2593 19.9944 37.5885 21.0511 37.5885 22.1333C37.5885 23.2156 37.2593 24.2722 36.6445 25.1629C36.0297 26.0536 35.1586 26.7362 34.1466 27.12V26.9867Z" fill="#ECB20D"/>
</svg>
