<svg width="54" height="54" viewBox="0 0 54 54" fill="none" xmlns="http://www.w3.org/2000/svg">
<path d="M45.6666 0.333374H8.33331C6.21158 0.333374 4.17675 1.17623 2.67646 2.67652C1.17617 4.17681 0.333313 6.21164 0.333313 8.33337V45.6667C0.333313 47.7884 1.17617 49.8233 2.67646 51.3236C4.17675 52.8238 6.21158 53.6667 8.33331 53.6667H45.6666C47.7884 53.6667 49.8232 52.8238 51.3235 51.3236C52.8238 49.8233 53.6666 47.7884 53.6666 45.6667V8.33337C53.6666 6.21164 52.8238 4.17681 51.3235 2.67652C49.8232 1.17623 47.7884 0.333374 45.6666 0.333374ZM48.3333 45.6667C48.3333 46.3739 48.0524 47.0522 47.5523 47.5523C47.0522 48.0524 46.3739 48.3334 45.6666 48.3334H8.33331C7.62607 48.3334 6.94779 48.0524 6.4477 47.5523C5.9476 47.0522 5.66665 46.3739 5.66665 45.6667V8.33337C5.66665 7.62613 5.9476 6.94785 6.4477 6.44776C6.94779 5.94766 7.62607 5.66671 8.33331 5.66671H45.6666C46.3739 5.66671 47.0522 5.94766 47.5523 6.44776C48.0524 6.94785 48.3333 7.62613 48.3333 8.33337V45.6667ZM27 16.3334C25.5855 16.3334 24.2289 16.8953 23.2287 17.8955C22.2285 18.8957 21.6666 20.2522 21.6666 21.6667C21.6723 22.5974 21.9214 23.5105 22.3892 24.3152C22.857 25.1198 23.5272 25.788 24.3333 26.2534V35C24.3333 35.7073 24.6143 36.3856 25.1144 36.8857C25.6145 37.3858 26.2927 37.6667 27 37.6667C27.7072 37.6667 28.3855 37.3858 28.8856 36.8857C29.3857 36.3856 29.6666 35.7073 29.6666 35V26.2534C30.4727 25.788 31.143 25.1198 31.6108 24.3152C32.0786 23.5105 32.3277 22.5974 32.3333 21.6667C32.3333 20.2522 31.7714 18.8957 30.7712 17.8955C29.771 16.8953 28.4145 16.3334 27 16.3334Z" fill="#436B2C"/>
</svg>
